<svg width="32" height="29" viewBox="0 0 32 29" fill="none" xmlns="http://www.w3.org/2000/svg">
<path d="M6 4.53149L26 24.469" stroke="#314D89" stroke-width="2" stroke-linecap="round" stroke-linejoin="round"/>
<path d="M19.3633 17.853C18.3821 18.6612 17.0867 19.0832 15.7622 19.026C14.4377 18.9687 13.1925 18.4371 12.3006 17.5479C11.4086 16.6587 10.9429 15.4848 11.0059 14.2845C11.0689 13.0841 11.6555 11.9556 12.6366 11.1472" stroke="#314D89" stroke-width="2" stroke-linecap="round" stroke-linejoin="round"/>
<path d="M9.24931 7.77051C4.15315 10.1093 2 14.5001 2 14.5001C2 14.5001 6 22.6555 16 22.6555C18.343 22.6724 20.6567 22.1833 22.7497 21.2288" stroke="#314D89" stroke-width="2" stroke-linecap="round" stroke-linejoin="round"/>
<path d="M26.0763 19.156C28.8015 16.9439 30.0001 14.5002 30.0001 14.5002C30.0001 14.5002 26.0001 6.34304 16.0001 6.34304C15.134 6.34175 14.2693 6.40557 13.4148 6.53382" stroke="#314D89" stroke-width="2" stroke-linecap="round" stroke-linejoin="round"/>
<path d="M16.9409 10.0491C18.0036 10.234 18.9715 10.7262 19.6994 11.4519C20.4274 12.1775 20.876 13.0975 20.9781 14.0738" stroke="#314D89" stroke-width="2" stroke-linecap="round" stroke-linejoin="round"/>
</svg>
