<svg width="30" height="30" viewBox="0 0 30 30" fill="none" xmlns="http://www.w3.org/2000/svg">
<path d="M12.5 4.375C12.5 3.3375 13.3375 2.5 14.375 2.5C15.4125 2.5 16.25 3.3375 16.25 4.375C16.25 5.4125 15.4125 6.25 14.375 6.25C13.3375 6.25 12.5 5.4125 12.5 4.375ZM27.5 10V14.375L26.2125 14.8125C26.1072 15.5569 25.7371 16.2385 25.17 16.7321C24.6029 17.2258 23.8769 17.4984 23.125 17.5H23.025C22.85 18.35 22.4375 19.1125 21.875 19.725V27.5H18.75V21.25H18.4375C18.175 21.25 17.9125 21.2125 17.6625 21.175L12.1125 20.25L10.7125 22.7625L11.65 27.5H8.475L7.5 22.8125C7.4625 22.4375 7.5 22.0625 7.7 21.7375L8.975 19.475C8.35453 19.1298 7.83461 18.629 7.4664 18.0219C7.09819 17.4148 6.89437 16.7223 6.875 16.0125C6.825 16.2 6.8 16.475 6.8375 16.875C6.875 17.425 7.0125 18.2375 6.925 19.1375C6.875 20.0375 6.4625 20.9625 5.9375 21.575C5.4 22.1875 4.8125 22.6125 4.1875 22.9375L3.3125 22.0625C3.55 21.475 3.7875 20.95 3.8375 20.4625C3.9125 20 3.825 19.625 3.6875 19.2875L3.025 17.875C2.7625 17.2375 2.4375 16.3125 2.5 15.225C2.5375 14.1625 3.125 12.775 4.2375 12.0125C5.3625 11.25 6.575 11.1375 7.5625 11.35C8.1875 11.475 8.825 11.775 9.375 12.2C9.8375 11.9875 10.375 11.875 10.9375 11.875H11.25V10.1375C11.25 8.8875 12.1 7.7375 13.325 7.5375C13.6839 7.47559 14.052 7.49283 14.4035 7.58803C14.755 7.68323 15.0815 7.85407 15.3601 8.08862C15.6387 8.32317 15.8627 8.61575 16.0164 8.94591C16.1701 9.27606 16.2498 9.63582 16.25 10V11.875H18.125V11.25C18.125 8.4875 20.3625 6.25 23.125 6.25H27.5L26.3875 7.925C27.0625 8.375 27.5 9.1375 27.5 10ZM25 14L23.7 11.925C23.5375 11.6625 23.125 11.775 23.125 12.0875V16.25C24.1625 16.25 25 15.4125 25 14.375V14Z" fill="#1B4C5A"/>
</svg>
