<svg width="67" height="67" viewBox="0 0 67 67" fill="none" xmlns="http://www.w3.org/2000/svg">
<path d="M16.7498 61.4166C15.2144 61.4166 13.9005 60.8704 12.808 59.7779C11.7137 58.6836 11.1665 57.3687 11.1665 55.8333V27.9166C11.1665 26.3812 11.7137 25.0663 12.808 23.972C13.9005 22.8795 15.2144 22.3333 16.7498 22.3333H19.5415V16.75C19.5415 12.8882 20.9029 9.59585 23.6257 6.87304C26.3467 4.1521 29.638 2.79163 33.4998 2.79163C37.3616 2.79163 40.6539 4.1521 43.3768 6.87304C46.0977 9.59585 47.4582 12.8882 47.4582 16.75V22.3333H50.2498C51.7853 22.3333 53.1001 22.8795 54.1945 23.972C55.2869 25.0663 55.8332 26.3812 55.8332 27.9166V55.8333C55.8332 57.3687 55.2869 58.6836 54.1945 59.7779C53.1001 60.8704 51.7853 61.4166 50.2498 61.4166H16.7498ZM33.4998 47.4583C35.0353 47.4583 36.3501 46.9121 37.4445 45.8196C38.5369 44.7253 39.0832 43.4104 39.0832 41.875C39.0832 40.3395 38.5369 39.0247 37.4445 37.9303C36.3501 36.8379 35.0353 36.2916 33.4998 36.2916C31.9644 36.2916 30.6505 36.8379 29.558 37.9303C28.4637 39.0247 27.9165 40.3395 27.9165 41.875C27.9165 43.4104 28.4637 44.7253 29.558 45.8196C30.6505 46.9121 31.9644 47.4583 33.4998 47.4583ZM25.1248 22.3333H41.8748V16.75C41.8748 14.4236 41.0606 12.4461 39.4321 10.8177C37.8037 9.1892 35.8262 8.37496 33.4998 8.37496C31.1734 8.37496 29.196 9.1892 27.5675 10.8177C25.9391 12.4461 25.1248 14.4236 25.1248 16.75V22.3333Z" fill="#1B4C5A"/>
</svg>