<svg width="91" height="86" viewBox="0 0 91 86" fill="none" xmlns="http://www.w3.org/2000/svg">
<path d="M41.6816 49.7372C41.7121 50.7644 42.1645 51.7399 42.9427 52.4563C43.7209 53.1727 44.7636 53.5736 45.8491 53.5739C46.9346 53.5741 47.9774 53.1735 48.7559 52.4574C49.5344 51.7413 49.9872 50.766 50.0181 49.7388V24.4438C49.9874 23.4166 49.5348 22.4412 48.7564 21.7249C47.9781 21.0086 46.9354 20.6079 45.8499 20.6079C44.7644 20.6079 43.7216 21.0086 42.9433 21.7249C42.1649 22.4412 41.7123 23.4166 41.6816 24.4438V49.7372ZM41.6816 60.7668C41.6816 62.9371 43.5573 64.7128 45.8499 64.7128C48.1424 64.7128 50.0181 62.9371 50.0181 60.7668C50.0181 58.5966 48.1424 56.8209 45.8499 56.8209C44.7455 56.8242 43.6873 57.241 42.9064 57.9803C42.1254 58.7196 41.6852 59.7213 41.6816 60.7668Z" fill="#1B4C5A"/>
<path d="M88.0338 42.616C88.0338 64.9457 68.8792 83.232 45.0169 83.232C21.1546 83.232 2 64.9457 2 42.616C2 20.2863 21.1546 2 45.0169 2C68.8792 2 88.0338 20.2863 88.0338 42.616Z" stroke="#1B4C5A" stroke-width="4"/>
</svg>
